<svg width="48" height="48" viewBox="0 0 48 48" fill="none" xmlns="http://www.w3.org/2000/svg">
<path d="M4 26.04V29.8C4 31.16 4.8 33.08 5.76 34.04L13.96 42.24C14.92 43.2 16.84 44 18.2 44H29.8C31.16 44 33.08 43.2 34.04 42.24L42.24 34.04C43.2 33.08 44 31.16 44 29.8V18.2C44 16.84 43.2 14.92 42.24 13.96L34.04 5.76C33.08 4.8 31.16 4 29.8 4H18.2C16.84 4 14.92 4.8 13.96 5.76L5.76 13.96C4.8 14.92 4 16.84 4 18.2M17 31L31 17M31 31L17 17" stroke="#EEDC5B" stroke-width="1.5" stroke-linecap="round" stroke-linejoin="round"/>
</svg>
