<?xml version="1.0" encoding="UTF-8"?>
<!DOCTYPE svg PUBLIC "-//W3C//DTD SVG 1.1//EN" "http://www.w3.org/Graphics/SVG/1.1/DTD/svg11.dtd">
<!-- Creator: CorelDRAW 2019 (64-Bit) -->
<svg xmlns="http://www.w3.org/2000/svg" xml:space="preserve" width="0.548858in" height="0.568854in" version="1.1" style="shape-rendering:geometricPrecision; text-rendering:geometricPrecision; image-rendering:optimizeQuality; fill-rule:evenodd; clip-rule:evenodd"
viewBox="0 0 135.09 140.01"
 xmlns:xlink="http://www.w3.org/1999/xlink"
 xmlns:xodm="http://www.corel.com/coreldraw/odm/2003">
 <defs>
  <style type="text/css">
   <![CDATA[
    .fil0 {fill:#EEDC5B}
   ]]>
  </style>
 </defs>
 <g id="Layer_x0020_1">
  <metadata id="CorelCorpID_0Corel-Layer"/>
  <g id="_1757558050544">
   <g>
    <polygon class="fil0" points="8.85,0 78.62,0 85.54,0 126.23,0 133.17,10.87 85.54,10.87 78.62,10.87 1.92,10.87 "/>
    <polygon class="fil0" points="1.97,17.38 133.82,17.38 135.09,13.8 -0,13.8 "/>
    <path class="fil0" d="M8.53 24.22l116.76 0c2.64,-1.12 4.72,-2.38 6.18,-3.91 -42.62,0 -85.23,0 -127.85,0 1.05,1.55 2.79,2.81 4.91,3.91z"/>
   </g>
   <rect class="fil0" x="5.28" y="27.38" width="35.09" height="29.07"/>
   <rect class="fil0" x="5.28" y="57.65" width="35.09" height="29.07"/>
   <rect class="fil0" x="5.28" y="87.91" width="35.09" height="52.1"/>
   <rect class="fil0" x="93.83" y="27.38" width="35.09" height="29.07"/>
   <rect class="fil0" x="93.83" y="57.65" width="35.09" height="29.07"/>
   <rect class="fil0" x="93.83" y="87.91" width="35.09" height="52.1"/>
   <path class="fil0" d="M44.29 27.38l46.51 0c0,8.25 0,16.5 0,24.75 -16.14,-8.19 -31.62,-7.94 -46.51,0l0 -24.75z"/>
  </g>
 </g>
</svg>
